<svg xmlns="http://www.w3.org/2000/svg" viewBox="0 0 495.89 60.01"><defs><style>.cls-1{fill:#499e66;}.cls-2{fill:#00366f;}</style></defs><title>Ativo 1</title><g id="Camada_2" data-name="Camada 2"><g id="Camada_1-2" data-name="Camada 1"><path class="cls-1" d="M57.52,23.62l-.35-.17a19.39,19.39,0,0,0-9-2.15,20.11,20.11,0,0,0-16,8l-.27.32-.73,1.08L14,56.3h0A7.49,7.49,0,0,1,0,52.5a7.22,7.22,0,0,1,.8-3.34C1,48.69,31.19,3.81,31.19,3.81l.65-1a7.48,7.48,0,0,1,11.76,0,6.53,6.53,0,0,1,.67,1l0,0c.33.48,4.2,6.25,9.08,13.52Z"/><path class="cls-2" d="M75.41,52.5a7.5,7.5,0,0,1-13.3,4.75c-.14-.17-.27-.35-.4-.53l0,0-.14-.22L44.34,30.83l-.86-1.29a7.47,7.47,0,0,0-10.76-.82,6.3,6.3,0,0,0-.56.55,20.11,20.11,0,0,1,16-8,19.39,19.39,0,0,1,9,2.15l.35.17,10.74,16L72,45.19c1.59,2.38,2.57,3.86,2.61,3.94A7.34,7.34,0,0,1,75.41,52.5Z"/><path class="cls-2" d="M37.71,60a7.5,7.5,0,1,1,0-15,7.22,7.22,0,0,1,3.34.8,6.5,6.5,0,0,1,1.32.83,7.47,7.47,0,0,1,0,11.76,6.32,6.32,0,0,1-1.25.8A7.35,7.35,0,0,1,37.71,60Z"/><path class="cls-2" d="M143,0a7.49,7.49,0,0,0-5.8,2.75c-.14.17-.27.35-.4.53l0,0L119.41,29.17l-.86,1.29a7.47,7.47,0,0,1-10.76.82,6.83,6.83,0,0,1-.83-.87l-.73-1.08L89,3.7h0a7.49,7.49,0,0,0-14,3.81,7.22,7.22,0,0,0,.8,3.34c.22.47,30.39,45.35,30.39,45.35l.65,1a7.47,7.47,0,0,0,11.76,0,6.47,6.47,0,0,0,.67-1l0,0c.33-.48,4.2-6.25,9.08-13.52,6.4-9.52,14.52-21.63,18.62-27.76,1.59-2.38,2.57-3.86,2.61-3.94a7.35,7.35,0,0,0,.81-3.37A7.5,7.5,0,0,0,143,0Z"/><path class="cls-2" d="M222.47,45.19c-4.1-6.13-12.22-18.24-18.62-27.76-4.88-7.27-8.75-13-9.08-13.52l0,0a6.47,6.47,0,0,0-.67-1,7.47,7.47,0,0,0-11.76,0l-.65,1S151.5,48.69,151.28,49.16a7.22,7.22,0,0,0-.8,3.34,7.49,7.49,0,0,0,14,3.81h0l17.2-25.63.73-1.08a6.83,6.83,0,0,1,.83-.87,7.47,7.47,0,0,1,10.76.82l.86,1.29,17.35,25.86,0,0c.13.18.26.36.4.53a7.5,7.5,0,0,0,13.3-4.75,7.35,7.35,0,0,0-.81-3.37C225,49.05,224.06,47.57,222.47,45.19Z"/><path class="cls-2" d="M192.85,46.64a6.5,6.5,0,0,0-1.32-.83,7.22,7.22,0,0,0-3.34-.8,7.5,7.5,0,0,0,0,15,7.35,7.35,0,0,0,3.37-.81,6.32,6.32,0,0,0,1.25-.8,7.47,7.47,0,0,0,0-11.76Z"/><path class="cls-2" d="M313,1.63A6.5,6.5,0,0,0,311.73.8a7.22,7.22,0,0,0-3.34-.8,7.5,7.5,0,0,0-7.5,7.5V22.63a7.41,7.41,0,0,1-.86,3.48,7.59,7.59,0,0,1-2,2.41,6.32,6.32,0,0,1-1.25.8,7.28,7.28,0,0,1-2.75.78c-.2,0-.41,0-.62,0A7.42,7.42,0,0,1,289.46,29h0l-1-.75h0l-11.74-8.78L253.86,2.4a4.94,4.94,0,0,0-.81-.77A6.5,6.5,0,0,0,251.73.8a7.22,7.22,0,0,0-3.34-.8,7.5,7.5,0,0,0-7.5,7.5v45a7.55,7.55,0,0,0,2.2,5.3,7.47,7.47,0,0,0,5.3,2.2,7.35,7.35,0,0,0,3.37-.81,6.32,6.32,0,0,0,1.25-.8,7.44,7.44,0,0,0,2.88-5.89V37.36a7.4,7.4,0,0,1,.86-3.47,7.48,7.48,0,0,1,6-4c.21,0,.42,0,.64,0a7.22,7.22,0,0,1,3.34.8,6.67,6.67,0,0,1,1,.58l.32.25,12.05,9.06,13.23,9.94,9.89,7.44a7.45,7.45,0,0,0,8.54,1.27,6.32,6.32,0,0,0,1.25-.8,7.44,7.44,0,0,0,2.88-5.89V7.5A7.47,7.47,0,0,0,313,1.63Z"/><path class="cls-2" d="M403,1.63A6.5,6.5,0,0,0,401.73.8a7.22,7.22,0,0,0-3.34-.8h-60a7.5,7.5,0,0,0,0,15h15c.23,0,.45,0,.67,0a7.11,7.11,0,0,1,2.67.77,6.5,6.5,0,0,1,1.32.83,7.47,7.47,0,0,1,2.84,5.87v30a7.55,7.55,0,0,0,2.18,5.28l0,0a7.47,7.47,0,0,0,5.3,2.2,7.35,7.35,0,0,0,3.37-.81,6.32,6.32,0,0,0,1.25-.8,7.44,7.44,0,0,0,2.88-5.89v-30a7.5,7.5,0,0,1,7.5-7.5h15a7.35,7.35,0,0,0,3.37-.81,6.32,6.32,0,0,0,1.25-.8,7.47,7.47,0,0,0,0-11.76Z"/><path class="cls-2" d="M493,46.64a6.5,6.5,0,0,0-1.32-.83,7.22,7.22,0,0,0-3.34-.8H438.71a3.77,3.77,0,0,1,.76-7.46h33.92v0a7.35,7.35,0,0,0,3.37-.81,6.32,6.32,0,0,0,1.25-.8,7.47,7.47,0,0,0,0-11.76,6.5,6.5,0,0,0-1.32-.83,7.22,7.22,0,0,0-3.34-.8H439a3.77,3.77,0,0,1,.51-7.5h48.92a7.35,7.35,0,0,0,3.37-.81,6.32,6.32,0,0,0,1.25-.8,7.47,7.47,0,0,0,0-11.76A6.5,6.5,0,0,0,491.73.8a7.22,7.22,0,0,0-3.34-.8h-60a7.5,7.5,0,0,0-7.5,7.5V52.72h0A7.5,7.5,0,0,0,428.39,60h60a7.35,7.35,0,0,0,3.37-.81,6.32,6.32,0,0,0,1.25-.8,7.47,7.47,0,0,0,0-11.76Z"/></g></g></svg>